<svg xmlns="http://www.w3.org/2000/svg" viewBox="0 0 654.27 816.52"><defs><style>.cls-1{fill:#f0f0f0}.cls-2{fill:#fff}.cls-3{fill:#eaefff}.cls-4,.cls-6{fill:none;stroke-linecap:round;stroke-linejoin:round;stroke-width:4.78px}.cls-4{stroke:#b0c3fa}.cls-5{fill:#ecc953}.cls-6{stroke:#1b3c87}.cls-7{fill:#d6dfff}.cls-8{fill:#b0c3fa}.cls-9{fill:#fb5d64}</style></defs><title>drawkit-grape-pack-illustration-14</title><g id="Layer_2" data-name="Layer 2"><g id="vector"><path d="M562.72,172.88c52.5,33.7,76.37,111.93,82.64,187.45s-4.91,148.34-32,227.58S543.42,753,476,782.31c-67.57,29.46-159.68,2.37-228.94-42.34C178,695.27,131.6,632.79,88.25,565.05S4.43,424.17.37,341.87C-3.86,259.58,28.31,168,92.15,136.3c64-31.66,159.68-3.22,248.24,5.42S510.23,139.18,562.72,172.88Z" class="cls-1"/><path d="M400,816.52c28.14-70.85,83-107.18,86-194.17.1-6.44-106-74.87-155.5-73.72S216.21,816.52,216.21,816.52Z" class="cls-2"/><rect width="317.49" height="565.74" x="183.97" y="51.61" class="cls-3"/><rect width="254.21" height="98.43" x="215.62" y="299.31" class="cls-2"/><line x1="319.12" x2="435.31" y1="327.68" y2="327.68" class="cls-4"/><line x1="319.12" x2="366.32" y1="358.14" y2="358.14" class="cls-4"/><circle cx="266.25" cy="348.52" r="26.85" class="cls-5"/><path d="M439.2,733.55c21.13-32.78,40.07-66.08,41.8-116.2" class="cls-6"/><path d="M395,811.52a287.5,287.5,0,0,1,21.47-42.41" class="cls-6"/><rect width="254.21" height="98.43" x="215.62" y="154.8" class="cls-2"/><rect width="317.49" height="58.26" x="183.97" y="51.61" class="cls-7"/><rect width="317.49" height="58.26" x="183.97" y="559.08" class="cls-7"/><line x1="319.12" x2="366.32" y1="80.74" y2="80.74" class="cls-6"/><circle cx="342.72" cy="588.21" r="13.99" class="cls-8"/><path d="M137.47,816.52c15-57,18-275,0-325,26-19,133-100,149-113,15,10,8,93-41,129v25c26,0,65,87,43,179-12.71,40.3,26.65,105,26.65,105Z" class="cls-2"/><path d="M265.21,548.51c19.08,31.29,33.7,93.42,18.26,158" class="cls-6"/><path d="M266.25,385.42c7.14-5.51,12.5-9.69,15.22-11.9,15,10,8,93-41,129v18.19" class="cls-6"/><path d="M147.5,475.38c22.55-16.82,59.33-44.6,89-67.16" class="cls-6"/><path d="M132.47,811.52c11.82-44.91,16.18-189.74,8.7-273.63" class="cls-6"/><line x1="413.3" x2="435.31" y1="183.17" y2="183.17" class="cls-4"/><line x1="319.12" x2="391.29" y1="183.17" y2="183.17" class="cls-4"/><line x1="319.12" x2="366.32" y1="213.63" y2="213.63" class="cls-4"/><circle cx="266.25" cy="204.01" r="26.85" class="cls-9"/><path d="M534.72,471.19c73.83,49.34-45.7,143-77.62,168.87C448.84,634.14,443.11,553.79,534.72,471.19Z" class="cls-2"/><path d="M478.17,613.46c-10.59,9.17-19.95,16.63-26.07,21.6-11.49-6.23-7.53-51.65,25-102.27" class="cls-6"/><path d="M529.72,466.19c40.41,27,22.89,67.28-6.48,102.46" class="cls-6"/><circle cx="566.64" cy="109.81" r="13.24" class="cls-4"/><path d="M524.55,33.41c0-.41,0-.83,0-1.25a29.77,29.77,0,1,1,13.12,24.68" class="cls-4"/><path d="M624.81,73.38a21,21,0,1,1,23-7.72" class="cls-4"/><path d="M508.47,426.52c-78,47-87,149-77,155,28-11,132-126,132-179,0-12-34.78-34.7-42.77-37.95-4.48-1.75.29-9.12-15.66,5.63C505.14,384.85,504,412.2,508.47,426.52Z" class="cls-2"/><path d="M515.7,359.57c8,3.25,42.77,25.95,42.77,37.95,0,13-6.29,29.82-16.19,47.88" class="cls-6"/><path d="M503.18,502.5c-29.55,36.87-62.68,68.51-76.71,74-10-6-1-108,77-155" class="cls-6"/><path d="M506.47,299.52c16-12,72-66,78-74,13-4,36,59-78,151" class="cls-2"/><path d="M546.82,329.14a392,392,0,0,1-45.35,42.38" class="cls-6"/><path d="M501.47,294.52c16-12,72-66,78-74,9.2-2.83,23.42,27.93-9.53,78.79" class="cls-6"/></g></g></svg>